<?xml version="1.0" encoding="UTF-8" standalone="no"?>
<!-- Created with Inkscape (http://www.inkscape.org/) -->

<svg
   version="1.1"
   id="svg9"
   width="715.72632"
   height="502.79865"
   viewBox="0 0 715.72632 502.79865"
   sodipodi:docname="youtube-play-button-6.svg"
   inkscape:version="1.1 (c68e22c387, 2021-05-23)"
   xmlns:inkscape="http://www.inkscape.org/namespaces/inkscape"
   xmlns:sodipodi="http://sodipodi.sourceforge.net/DTD/sodipodi-0.dtd"
   xmlns="http://www.w3.org/2000/svg"
   xmlns:svg="http://www.w3.org/2000/svg">
  <defs
     id="defs13" />
  <sodipodi:namedview
     id="namedview11"
     pagecolor="#ffffff"
     bordercolor="#666666"
     borderopacity="1.0"
     inkscape:pageshadow="2"
     inkscape:pageopacity="0.0"
     inkscape:pagecheckerboard="0"
     showgrid="false"
     fit-margin-top="0"
     fit-margin-left="0"
     fit-margin-right="0"
     fit-margin-bottom="0"
     inkscape:zoom="0.81063632"
     inkscape:cx="183.18942"
     inkscape:cy="177.02143"
     inkscape:window-width="1920"
     inkscape:window-height="1001"
     inkscape:window-x="-9"
     inkscape:window-y="-9"
     inkscape:window-maximized="1"
     inkscape:current-layer="g15" />
  <g
     inkscape:groupmode="layer"
     inkscape:label="Image"
     id="g15"
     transform="translate(-48.090328,-244.93616)">
    <path
       style="fill:#000000;stroke-width:1;opacity:0.655;fill-opacity:1"
       d="m 366.76725,749.1137 c -0.22917,-0.20066 -20.66667,-0.65834 -45.41667,-1.01706 -68.98842,-0.99983 -132.0981,-3.30475 -156.5,-5.71563 -41.11442,-4.06223 -62.18322,-12.01674 -79.6275,-30.06346 C 77.96431,704.80811 73.61732,698.03546 68.63846,686.47852 58.84389,663.7433 55.27808,644.38539 51.23115,591.97862 49.09936,564.3725 48.16361,459.89276 49.78022,429.97876 c 3.64313,-67.41281 7.74507,-93.91716 18.58959,-120.11469 8.78081,-21.2121 23.29652,-36.36374 44.08037,-46.01123 13.74518,-6.38033 22.84633,-8.39972 46.4004,-10.29538 113.82555,-9.1611 381.18571,-9.17069 494.99999,-0.0173 33.65489,2.70639 49.49521,8.38342 68.39909,24.51294 9.19645,7.84694 13.13229,13.00337 19.02602,24.92636 11.87068,24.01453 16.25168,45.24223 20.1135,97.45768 5.1735,69.95079 4.21857,154.47551 -2.54811,225.54209 -2.70465,28.4054 -9.89315,54.17458 -20.13774,72.18918 -11.04791,19.42742 -33.64936,35.16716 -58.35276,40.63735 -18.81755,4.16695 -81.84655,7.40581 -188.5,9.68661 -43.76929,0.93592 -124.26742,1.33624 -125.08332,0.6219 z m -11.3341,-169.67928 c 9.85459,-5.06947 28.49243,-14.722 41.41743,-21.44992 22.97559,-11.95957 34.90626,-18.13655 73.49999,-38.05355 10.45,-5.39294 24.17822,-12.53835 30.50716,-15.87875 6.32893,-3.34043 14.54143,-7.60335 18.25,-9.4731 3.70856,-1.86981 6.74121,-3.6698 6.73922,-3.99999 -0.002,-0.33018 -5.51449,-3.45563 -12.25,-6.94528 -6.73551,-3.48967 -17.42138,-9.06037 -23.74638,-12.37937 -21.87655,-11.4798 -31.56314,-16.53711 -46.49999,-24.27797 -8.25,-4.27545 -18.6,-9.67139 -23,-11.99101 -4.4,-2.31956 -13.85,-7.27538 -21,-11.01281 -7.15,-3.73744 -15.7,-8.23459 -19,-9.99354 -14.73922,-7.85651 -47.23642,-24.50034 -47.8369,-24.50034 -0.87165,0 -0.86461,200.46493 0.007,201.33667 0.3686,0.36858 1.64326,0.0319 2.83257,-0.74672 1.18932,-0.77928 10.22524,-5.5647 20.07983,-10.63432 z"
       id="path171" />
    <path
       style="fill:#ffffff;stroke-width:0.872286"
       d="m -478.66699,363.08908 c -0.25675,-46.9862 0.29912,-159.24026 0.79129,-159.79484 0.39617,-0.44641 14.66503,6.83967 64.84824,33.11332 19.90993,10.42394 54.45246,28.46582 76.76118,40.09306 47.57451,24.79572 50.08936,26.18059 49.13633,27.05821 -0.87056,0.80167 -19.87754,10.70876 -115.43008,60.16609 -40.05973,20.73465 -73.20879,38.05303 -73.66455,38.4853 -0.45577,0.43227 -1.1427,0.78595 -1.52651,0.78595 -0.3838,0 -0.79596,-17.95819 -0.9159,-39.90709 z"
       id="path435" />
    <path
       style="fill:#ffffff;stroke-width:0.872286"
       d="m 283.47654,311.6242 c -0.70827,-34.61866 -0.13123,-166.53166 0.73225,-167.39514 0.28927,-0.28927 13.00373,5.95635 28.25436,13.87916 63.32133,32.89587 160.2532,83.67766 161.82599,84.77929 1.92724,1.34989 1.69729,1.49373 -22.00881,13.76785 -6.95648,3.60181 -45.81682,23.72227 -86.35632,44.71214 -40.5395,20.98989 -75.31278,39.09712 -77.27395,40.23832 -1.96118,1.14119 -3.77996,2.0749 -4.04173,2.0749 -0.26177,0 -0.77107,-14.42544 -1.13179,-32.05652 z"
       id="path741"
       transform="translate(48.090328,244.93616)" />
    <path
       id="path9315"
       style="fill:#ffffff;fill-opacity:0.995951;stroke-width:1.31825"
       d="m 331.35352,372.63281 c -1.80884,-0.17362 -5.45881,-0.008 -8.35352,2.80469 -3.46688,3.36896 -2.44858,3.93846 -2.59375,4.51758 -0.14517,0.57912 -0.17823,0.85491 -0.21289,1.09961 -0.0693,0.48939 -0.0897,0.77465 -0.11328,1.08984 -0.0471,0.63038 -0.0769,1.28472 -0.10742,2.10352 -0.0611,1.63758 -0.11339,3.86373 -0.16211,6.67187 -0.0974,5.61628 -0.17722,13.51349 -0.24024,22.9707 -0.12604,18.91444 -0.18548,44.04315 -0.17969,69.26172 0.006,25.21857 0.0781,50.52035 0.2129,69.7793 0.0674,9.62948 0.15005,17.74524 0.25,23.61524 0.05,2.93499 0.10327,5.30058 0.16406,7.06835 0.0304,0.88389 0.0612,1.61024 0.10156,2.25391 0.0404,0.64367 -0.32209,0.15726 0.41406,2.82617 0.43561,1.57934 0.9246,2.96774 2.11719,4.71485 0.5963,0.87355 1.28708,1.92248 3.20117,3.12695 1.9141,1.20447 6.62188,2.21369 10.06446,0.24805 a 9.4049197,9.4049197 0 0 0 0.002,0 c -1.46115,0.83433 -0.16794,0.0948 0.15625,-0.0703 0.32419,-0.16511 0.80592,-0.40863 1.42969,-0.72461 1.24753,-0.63195 3.06658,-1.55277 5.39062,-2.72656 4.64808,-2.34757 11.31782,-5.71322 19.51367,-9.8457 16.39171,-8.26496 38.88689,-19.59882 63.52539,-32.00586 51.99781,-26.18416 80.23067,-40.41911 95.53907,-48.25586 7.6542,-3.91837 12.04556,-6.21812 14.74804,-7.7207 1.35125,-0.7513 2.24242,-1.25813 3.23047,-1.94336 0.49403,-0.34262 1.01611,-0.68437 1.85938,-1.55469 0.84296,-0.87 2.74803,-2.62701 2.77734,-6.69336 v -0.002 c 0.0239,-3.38084 -1.14723,-4.69648 -1.72851,-5.52735 -0.58144,-0.83108 -0.97921,-1.20241 -1.29883,-1.50781 -0.63925,-0.61081 -1.00542,-0.86345 -1.36328,-1.12109 -0.71573,-0.51528 -1.33241,-0.89696 -2.09961,-1.35938 -1.53441,-0.92483 -3.57205,-2.07002 -6.30469,-3.55859 -5.46529,-2.97715 -13.63473,-7.274 -24.84766,-13.06836 -22.42586,-11.58873 -56.978,-29.14391 -105.67969,-53.71289 -25.05425,-12.63935 -40.76064,-20.51011 -50.74804,-25.32617 -4.9937,-2.40803 -8.54371,-4.05115 -11.26758,-5.19336 -2.72387,-1.14222 -4.2197,-1.92941 -7.39648,-2.23438 z" />
    <rect
       style="fill:none"
       id="rect1961"
       width="725.35608"
       height="505.77551"
       x="43.155933"
       y="246.16975" />
    <path
       style="opacity:1;fill:#800000;fill-opacity:0.995951;stroke-width:1.2336"
       d="m -474.2975,481.47873 c -1.03887,-14.7115 -0.30951,-186.72579 0.79643,-187.83115 1.01517,-1.01465 13.74845,5.37745 91.06541,45.71478 84.20159,43.92914 99.15537,51.92403 99.59685,53.24847 0.47992,1.43976 5.90786,-1.45703 -97.74645,52.16528 -47.49355,24.5693 -87.5814,45.4459 -89.08411,46.39244 -1.50271,0.94652 -2.97748,1.72096 -3.27727,1.72096 -0.29979,0 -0.90768,-5.13485 -1.35086,-11.41078 z"
       id="path4725" />
  </g>
</svg>
